<svg width="700" height="320" viewBox="0 0 700 320" fill="none" xmlns="http://www.w3.org/2000/svg">
  <defs>
    <!-- Define solid emerald background color -->
    <linearGradient id="solid_background" x1="0" y1="0" x2="700" y2="320" gradientUnits="userSpaceOnUse">
      <stop stop-color="#50C878"/> <!-- Emerald color -->
      <stop offset="1" stop-color="#50C878"/> <!-- Emerald color -->
    </linearGradient>

    <!-- Define grid line styles -->
    <linearGradient id="grid_line_vertical" x1="0" y1="0" x2="0" y2="320" gradientUnits="userSpaceOnUse">
      <stop stop-color="#003366" stop-opacity="0.4"/>
      <stop offset="1" stop-color="#003366" stop-opacity="0"/>
    </linearGradient>
    <linearGradient id="grid_line_horizontal" x1="0" y1="0" x2="700" y2="0" gradientUnits="userSpaceOnUse">
      <stop stop-color="#003366" stop-opacity="0.4"/>
      <stop offset="1" stop-color="#003366" stop-opacity="0"/>
    </linearGradient>

    <!-- Define bug figure styles -->
    <style>
      .bug-body { fill: #000000; }
      .bug-eye { fill: #ffffff; }
    </style>
  </defs>

  <!-- Background Rectangle -->
  <rect width="700" height="320" rx="16" fill="url(#solid_background)"/> <!-- Solid emerald background -->

  <!-- Grid Lines -->
  <g stroke="#003366" stroke-width="1" stroke-opacity="0.4">
    <!-- Vertical lines -->
    <line x1="16" y1="20" x2="16" y2="320" stroke="url(#grid_line_vertical)" stroke-dasharray="4 4"/>
    <line x1="56" y1="20" x2="56" y2="320" stroke="url(#grid_line_vertical)" stroke-dasharray="4 4"/>
    <line x1="96" y1="20" x2="96" y2="320" stroke="url(#grid_line_vertical)" stroke-dasharray="4 4"/>
    <line x1="136" y1="20" x2="136" y2="320" stroke="url(#grid_line_vertical)" stroke-dasharray="4 4"/>
    <line x1="176" y1="20" x2="176" y2="320" stroke="url(#grid_line_vertical)" stroke-dasharray="4 4"/>
    <line x1="216" y1="20" x2="216" y2="320" stroke="url(#grid_line_vertical)" stroke-dasharray="4 4"/>
    <line x1="256" y1="20" x2="256" y2="320" stroke="url(#grid_line_vertical)" stroke-dasharray="4 4"/>
    <line x1="296" y1="20" x2="296" y2="320" stroke="url(#grid_line_vertical)" stroke-dasharray="4 4"/>
    <line x1="336" y1="20" x2="336" y2="320" stroke="url(#grid_line_vertical)" stroke-dasharray="4 4"/>
    <line x1="376" y1="20" x2="376" y2="320" stroke="url(#grid_line_vertical)" stroke-dasharray="4 4"/>
    <line x1="416" y1="20" x2="416" y2="320" stroke="url(#grid_line_vertical)" stroke-dasharray="4 4"/>
    <line x1="456" y1="20" x2="456" y2="320" stroke="url(#grid_line_vertical)" stroke-dasharray="4 4"/>
    <line x1="496" y1="20" x2="496" y2="320" stroke="url(#grid_line_vertical)" stroke-dasharray="4 4"/>
    <line x1="536" y1="20" x2="536" y2="320" stroke="url(#grid_line_vertical)" stroke-dasharray="4 4"/>
    <line x1="576" y1="20" x2="576" y2="320" stroke="url(#grid_line_vertical)" stroke-dasharray="4 4"/>
    <line x1="616" y1="20" x2="616" y2="320" stroke="url(#grid_line_vertical)" stroke-dasharray="4 4"/>
    <line x1="656" y1="20" x2="656" y2="320" stroke="url(#grid_line_vertical)" stroke-dasharray="4 4"/>
    
    <!-- Horizontal lines -->
    <line x1="20" y1="16" x2="700" y2="16" stroke="url(#grid_line_horizontal)" stroke-dasharray="4 4"/>
    <line x1="20" y1="56" x2="700" y2="56" stroke="url(#grid_line_horizontal)" stroke-dasharray="4 4"/>
    <line x1="20" y1="96" x2="700" y2="96" stroke="url(#grid_line_horizontal)" stroke-dasharray="4 4"/>
    <line x1="20" y1="136" x2="700" y2="136" stroke="url(#grid_line_horizontal)" stroke-dasharray="4 4"/>
    <line x1="20" y1="176" x2="700" y2="176" stroke="url(#grid_line_horizontal)" stroke-dasharray="4 4"/>
    <line x1="20" y1="216" x2="700" y2="216" stroke="url(#grid_line_horizontal)" stroke-dasharray="4 4"/>
    <line x1="20" y1="256" x2="700" y2="256" stroke="url(#grid_line_horizontal)" stroke-dasharray="4 4"/>
  </g>

  <!-- Central Bug Figure -->
  <g transform="translate(250, 60)">
    <!-- Bug body -->
    <ellipse cx="100" cy="100" rx="60" ry="80" class="bug-body" />
    
    <!-- Bug eyes -->
    <circle cx="75" cy="70" r="10" class="bug-eye" />
    <circle cx="125" cy="70" r="10" class="bug-eye" />

    <!-- Bug antennae -->
    <line x1="75" y1="40" x2="55" y2="20" stroke="#000" stroke-width="5" />
    <line x1="125" y1="40" x2="145" y2="20" stroke="#000" stroke-width="5" />
  </g>
</svg>
