<svg width="700" height="320" viewBox="0 0 700 320" fill="none" xmlns="http://www.w3.org/2000/svg">
  <defs>
    <!-- Define solid emerald background color -->
    <linearGradient id="solid_background" x1="0" y1="0" x2="700" y2="320" gradientUnits="userSpaceOnUse">
      <stop stop-color="#50C878"/> <!-- Emerald color -->
      <stop offset="1" stop-color="#50C878"/> <!-- Emerald color -->
    </linearGradient>
    
    <!-- Grid line styles -->
    <linearGradient id="grid_line_vertical" x1="0" y1="0" x2="0" y2="320" gradientUnits="userSpaceOnUse">
      <stop stop-color="#003366" stop-opacity="0.4"/>
      <stop offset="1" stop-color="#003366" stop-opacity="0"/>
    </linearGradient>
    <linearGradient id="grid_line_horizontal" x1="0" y1="0" x2="700" y2="0" gradientUnits="userSpaceOnUse">
      <stop stop-color="#003366" stop-opacity="0.4"/>
      <stop offset="1" stop-color="#003366" stop-opacity="0"/>
    </linearGradient>

    <!-- Define geometric shapes gradient -->
    <linearGradient id="geo_shape_gradient" x1="0" y1="0" x2="1" y2="1" gradientUnits="objectBoundingBox">
      <stop offset="0%" stop-color="#4D9F5F" stop-opacity="0.8"/>
      <stop offset="100%" stop-color="#007F6F" stop-opacity="0.5"/>
    </linearGradient>
  </defs>
  
  <!-- Background Rectangle -->
  <rect width="700" height="320" rx="16" fill="url(#solid_background)"/> <!-- Solid emerald background -->

  <!-- Grid Lines -->
  <g stroke="#003366" stroke-width="1" stroke-opacity="0.4">
    <!-- Vertical lines -->
    <line x1="16" y1="20" x2="16" y2="320" stroke="url(#grid_line_vertical)" stroke-dasharray="4 4"/>
    <line x1="56" y1="20" x2="56" y2="320" stroke="url(#grid_line_vertical)" stroke-dasharray="4 4"/>
    <line x1="96" y1="20" x2="96" y2="320" stroke="url(#grid_line_vertical)" stroke-dasharray="4 4"/>
    <line x1="136" y1="20" x2="136" y2="320" stroke="url(#grid_line_vertical)" stroke-dasharray="4 4"/>
    <line x1="176" y1="20" x2="176" y2="320" stroke="url(#grid_line_vertical)" stroke-dasharray="4 4"/>
    <line x1="216" y1="20" x2="216" y2="320" stroke="url(#grid_line_vertical)" stroke-dasharray="4 4"/>
    <line x1="256" y1="20" x2="256" y2="320" stroke="url(#grid_line_vertical)" stroke-dasharray="4 4"/>
    <line x1="296" y1="20" x2="296" y2="320" stroke="url(#grid_line_vertical)" stroke-dasharray="4 4"/>
    <line x1="336" y1="20" x2="336" y2="320" stroke="url(#grid_line_vertical)" stroke-dasharray="4 4"/>
    <line x1="376" y1="20" x2="376" y2="320" stroke="url(#grid_line_vertical)" stroke-dasharray="4 4"/>
    <line x1="416" y1="20" x2="416" y2="320" stroke="url(#grid_line_vertical)" stroke-dasharray="4 4"/>
    <line x1="456" y1="20" x2="456" y2="320" stroke="url(#grid_line_vertical)" stroke-dasharray="4 4"/>
    <line x1="496" y1="20" x2="496" y2="320" stroke="url(#grid_line_vertical)" stroke-dasharray="4 4"/>
    <line x1="536" y1="20" x2="536" y2="320" stroke="url(#grid_line_vertical)" stroke-dasharray="4 4"/>
    <line x1="576" y1="20" x2="576" y2="320" stroke="url(#grid_line_vertical)" stroke-dasharray="4 4"/>
    <line x1="616" y1="20" x2="616" y2="320" stroke="url(#grid_line_vertical)" stroke-dasharray="4 4"/>
    <line x1="656" y1="20" x2="656" y2="320" stroke="url(#grid_line_vertical)" stroke-dasharray="4 4"/>
    
    <!-- Horizontal lines -->
    <line x1="20" y1="16" x2="700" y2="16" stroke="url(#grid_line_horizontal)" stroke-dasharray="4 4"/>
    <line x1="20" y1="56" x2="700" y2="56" stroke="url(#grid_line_horizontal)" stroke-dasharray="4 4"/>
    <line x1="20" y1="96" x2="700" y2="96" stroke="url(#grid_line_horizontal)" stroke-dasharray="4 4"/>
    <line x1="20" y1="136" x2="700" y2="136" stroke="url(#grid_line_horizontal)" stroke-dasharray="4 4"/>
    <line x1="20" y1="176" x2="700" y2="176" stroke="url(#grid_line_horizontal)" stroke-dasharray="4 4"/>
    <line x1="20" y1="216" x2="700" y2="216" stroke="url(#grid_line_horizontal)" stroke-dasharray="4 4"/>
    <line x1="20" y1="256" x2="700" y2="256" stroke="url(#grid_line_horizontal)" stroke-dasharray="4 4"/>
  </g>

  <!-- Blockchain-Themed Geometric Figures -->
  <g stroke="black" stroke-width="2" fill="url(#geo_shape_gradient)" opacity="0.6">
    <!-- Blockchain Nodes (Circles) -->
    <circle cx="150" cy="100" r="20" />
    <circle cx="250" cy="100" r="20" />
    <circle cx="350" cy="100" r="20" />
    <circle cx="450" cy="100" r="20" />
    <circle cx="550" cy="100" r="20" />
    
    <!-- Connections (Lines) -->
    <line x1="150" y1="100" x2="250" y2="100" />
    <line x1="250" y1="100" x2="350" y2="100" />
    <line x1="350" y1="100" x2="450" y2="100" />
    <line x1="450" y1="100" x2="550" y2="100" />
    
    <!-- Vertical Chains -->
    <line x1="150" y1="100" x2="150" y2="200" />
    <line x1="250" y1="100" x2="250" y2="200" />
    <line x1="350" y1="100" x2="350" y2="200" />
    <line x1="450" y1="100" x2="450" y2="200" />
    <line x1="550" y1="100" x2="550" y2="200" />
    
    <!-- Additional Nodes at the Bottom -->
    <circle cx="150" cy="200" r="20" />
    <circle cx="250" cy="200" r="20" />
    <circle cx="350" cy="200" r="20" />
    <circle cx="450" cy="200" r="20" />
    <circle cx="550" cy="200" r="20" />
  </g>
</svg>
